<svg xmlns="http://www.w3.org/2000/svg" width="214.333" height="212.195" viewBox="0 0 214.333 212.195">
  <g id="Group_995" data-name="Group 995" transform="translate(1633.415 35.492)">
    <g id="Component_35_4" data-name="Component 35 – 4" transform="translate(-1507.219 -35.492) rotate(47)" opacity="0.83" style="mix-blend-mode: color-burn;isolation: isolate">
      <path id="Path_362" data-name="Path 362" d="M73.625-6.588c91.323,0,28.926-53.539,28.926,59.416,0,101.546,49.616,71.57-6.89,64.457A186.4,186.4,0,0,0,72.619,116C-18.7,116-5.17,210.88-5.17,97.925S-17.7-6.588,73.625-6.588Z" transform="translate(5.877 19.267)" fill="#191d25"/>
    </g>
    <g id="Path_364" data-name="Path 364" transform="translate(-1540.862 43.655) rotate(47)" fill="rgba(239,50,11,0.51)">
      <path d="M 33.42950820922852 31.59306526184082 L 0.8066125512123108 30.37687110900879 L 15.99607563018799 1.046115040779114 L 33.42950820922852 31.59306526184082 Z" stroke="none"/>
      <path d="M 16.01739883422852 2.092203140258789 L 1.61322021484375 29.90657806396484 L 32.54953384399414 31.05989456176758 L 16.01739883422852 2.092203140258789 M 15.9747486114502 -3.814697265625e-06 L 34.30947875976563 32.12620544433594 L 0 30.84713363647461 L 15.9747486114502 -3.814697265625e-06 Z" stroke="none" fill="#707070"/>
    </g>
    <g id="Path_365" data-name="Path 365" transform="translate(-1516.509 43.438) rotate(139)" fill="rgba(41,70,128,0.87)">
      <path d="M 0.8730753660202026 31.83576583862305 L 18.17060470581055 1.058852910995483 L 33.24061965942383 30.62848472595215 L 0.8730753660202026 31.83576583862305 Z" stroke="none"/>
      <path d="M 18.14905548095703 2.117706298828125 L 1.746147155761719 31.3028450012207 L 32.43965530395508 30.15800666809082 L 18.14905548095703 2.117706298828125 M 18.19215393066406 -3.814697265625e-06 L 34.04158401489258 31.09895515441895 L 3.814697265625e-06 32.36867523193359 L 18.19215393066406 -3.814697265625e-06 Z" stroke="none" fill="#707070"/>
    </g>
    <g id="Path_366" data-name="Path 366" transform="translate(-1520.237 67.021) rotate(-133)" fill="rgba(237,251,38,0.9)">
      <path d="M 33.42950820922852 31.59306526184082 L 0.8066125512123108 30.37687110900879 L 15.99607563018799 1.046115040779114 L 33.42950820922852 31.59306526184082 Z" stroke="none"/>
      <path d="M 16.01739883422852 2.092203140258789 L 1.61322021484375 29.90657806396484 L 32.54953384399414 31.05989456176758 L 16.01739883422852 2.092203140258789 M 15.9747486114502 -3.814697265625e-06 L 34.30947875976563 32.12620544433594 L 0 30.84713363647461 L 15.9747486114502 -3.814697265625e-06 Z" stroke="none" fill="#707070"/>
    </g>
    <g id="Path_367" data-name="Path 367" transform="translate(-1544.439 67.958) rotate(-43)" fill="#ef320b">
      <path d="M 0.8755385875701904 31.75807762145996 L 18.22370338439941 1.054606318473816 L 33.32792663574219 30.54189872741699 L 0.8755385875701904 31.75807762145996 Z" stroke="none"/>
      <path d="M 18.20212745666504 2.109209060668945 L 1.751087188720703 31.22491264343262 L 32.5252685546875 30.07162857055664 L 18.20212745666504 2.109209060668945 M 18.24528503417969 0 L 34.13059616088867 31.01217079162598 L -3.814697265625e-06 32.29124069213867 L 18.24528503417969 0 Z" stroke="none" fill="#707070"/>
    </g>
    <text id="_2" data-name="2" transform="translate(-1544.916 37)" fill="#fff" font-size="8" font-family="FranklinGothic-Medium, Franklin Gothic" font-weight="500"><tspan x="0.654" y="7">2</tspan></text>
    <text id="_3" data-name="3" transform="translate(-1532.916 40)" fill="#fff" font-size="8" font-family="FranklinGothic-Medium, Franklin Gothic" font-weight="500"><tspan x="0.654" y="7">3</tspan></text>
    <text id="_4" data-name="4" transform="translate(-1519.916 37)" fill="#fff" font-size="8" font-family="FranklinGothic-Medium, Franklin Gothic" font-weight="500"><tspan x="0.654" y="7">4</tspan></text>
    <text id="X" transform="translate(-1545.916 52)" fill="#fff" font-size="8" font-family="FranklinGothic-Medium, Franklin Gothic" font-weight="500"><tspan x="0.734" y="7">X</tspan></text>
    <text id="Z" transform="translate(-1541.916 61)" fill="#fff" font-size="8" font-family="FranklinGothic-Medium, Franklin Gothic" font-weight="500"><tspan x="0.869" y="7">Z</tspan></text>
    <text id="E" transform="translate(-1472.916 109)" fill="#fff" font-size="8" font-family="FranklinGothic-Medium, Franklin Gothic" font-weight="500"><tspan x="0.854" y="7">E</tspan></text>
    <text id="M" transform="translate(-1524.916 61)" fill="#fff" font-size="8" font-family="FranklinGothic-Medium, Franklin Gothic" font-weight="500"><tspan x="-0.203" y="7">M</tspan></text>
    <text id="Y" transform="translate(-1532.916 68)" fill="#fff" font-size="8" font-family="FranklinGothic-Medium, Franklin Gothic" font-weight="500"><tspan x="0.826" y="7">Y</tspan></text>
    <text id="E-2" data-name="E" transform="translate(-1519.916 52)" fill="#fff" font-size="8" font-family="FranklinGothic-Medium, Franklin Gothic" font-weight="500"><tspan x="0.854" y="7">E</tspan></text>
  </g>
</svg>
