<svg xmlns="http://www.w3.org/2000/svg" width="214.333" height="212.195" viewBox="0 0 214.333 212.195"><g transform="translate(1633.415 35.492)"><g transform="translate(-1507.219 -35.492) rotate(47)" opacity="0.83" style="mix-blend-mode:color-burn;isolation:isolate"><g transform="translate(5.877 19.267)" fill="#582a2a"><path d="M -4.671587467193604 152.7843017578125 C -4.689321041107178 152.7843017578125 -4.70612096786499 152.7843017578125 -4.743654251098633 152.7458038330078 C -5.101620674133301 152.3790283203125 -5.309520721435547 150.8509368896484 -5.361587524414063 148.2040252685547 C -5.417487621307373 145.3621978759766 -5.315620899200439 141.1775360107422 -5.174687385559082 135.3857269287109 C -4.961487770080566 126.6266632080078 -4.669520854949951 114.6306610107422 -4.669520854949951 97.92482757568359 C -4.669520854949951 84.17396545410156 -4.853754043579102 72.30666351318359 -5.016287326812744 61.83633041381836 C -5.293220996856689 43.99523162841797 -5.493320941925049 31.1047306060791 -4.60245418548584 21.37086296081543 C -4.145121097564697 16.37392997741699 -3.403520822525024 12.40049648284912 -2.335287570953369 9.223496437072754 C -1.228154182434082 5.93079662322998 0.2730457782745361 3.352096557617188 2.254079103469849 1.340063214302063 C 3.863312482833862 -0.2943367958068848 5.811445713043213 -1.587803483009338 8.209845542907715 -2.614336729049683 C 10.54487895965576 -3.613736867904663 13.32544612884521 -4.366837024688721 16.71041297912598 -4.916636943817139 C 23.42304611206055 -6.006969928741455 32.07851409912109 -6.230403423309326 43.00938034057617 -6.230403423309326 C 46.97311401367188 -6.230403423309326 51.29871368408203 -6.199870109558105 55.87831115722656 -6.167536735534668 C 61.18947982788086 -6.130070209503174 67.20928192138672 -6.087603569030762 73.62494659423828 -6.087603569030762 C 94.67489624023438 -6.087603569030762 107.043586730957 -8.918070793151855 113.9586715698242 -11.51463508605957 C 109.168083190918 -3.487928867340088 102.0508117675781 14.83879661560059 102.0508117675781 52.82843017578125 C 102.0508117675781 71.84286499023438 103.7870483398438 88.06196594238281 107.211311340332 101.0351638793945 C 109.9401168823242 111.3736953735352 113.2398910522461 117.7281494140625 115.833610534668 121.4819259643555 C 109.5888977050781 118.9677505493164 96.62358093261719 115.5027313232422 72.61944580078125 115.5027313232422 C 27.11361312866211 115.5027313232422 7.624945640563965 138.8038330078125 -0.6970875263214111 148.7538299560547 C -1.784420847892761 150.0538635253906 -2.643254280090332 151.0807037353516 -3.344720840454102 151.7966918945313 C -4.217987537384033 152.6880645751953 -4.563554286956787 152.7843017578125 -4.671587467193604 152.7843017578125 Z M 122.0053329467773 126.3067626953125 C 121.4665908813477 126.0686721801758 120.5622329711914 125.462760925293 119.4335174560547 124.3238906860352 C 120.9052429199219 125.1900177001953 121.6635284423828 125.8887252807617 122.0053329467773 126.3067626953125 Z M 116.6079788208008 -13.71027851104736 C 117.7185440063477 -15.21904468536377 118.8586959838867 -16.46637725830078 119.9551773071289 -17.36633682250977 C 121.2133483886719 -18.39900398254395 122.1691818237305 -18.76693725585938 122.6441421508789 -18.76693725585938 C 122.8013153076172 -18.76693725585938 122.8475112915039 -18.72800254821777 122.8479156494141 -18.72760391235352 C 122.8551788330078 -18.71500396728516 122.8735809326172 -18.62566947937012 122.8126449584961 -18.44193649291992 C 122.5309982299805 -17.59275436401367 120.8977279663086 -15.7290735244751 116.6079788208008 -13.71027851104736 Z" stroke="none"/><path d="M 122.0797119140625 -18.1295166015625 C 121.3031692504883 -17.81983947753906 120.0311889648438 -16.95854187011719 118.5106582641602 -15.26560974121094 C 119.5364074707031 -15.85992431640625 120.2691955566406 -16.38777160644531 120.7747116088867 -16.80117797851563 C 121.445915222168 -17.35005187988281 121.8486633300781 -17.80302429199219 122.0797119140625 -18.1295166015625 M 112.8468017578125 -10.58305358886719 C 105.6807556152344 -8.108718872070313 93.5001220703125 -5.587600708007813 73.62496185302734 -5.587600708007813 C 67.20749664306641 -5.587600708007813 61.18674468994141 -5.630111694335938 55.87474822998047 -5.667572021484375 C 51.29606628417969 -5.69989013671875 46.9713134765625 -5.730392456054688 43.00939178466797 -5.730392456054688 C 32.10270690917969 -5.730392456054688 23.47013854980469 -5.508071899414063 16.79057312011719 -4.423110961914063 C 13.44621276855469 -3.879898071289063 10.70378112792969 -3.137893676757813 8.406570434570313 -2.154678344726563 C 6.069061279296875 -1.154220581054688 4.173095703125 0.1036376953125 2.610382080078125 1.69085693359375 C 0.68377685546875 3.647613525390625 -0.7789306640625 6.163681030273438 -1.861358642578125 9.382827758789063 C -2.917037963867188 12.52250671386719 -3.650787353515625 16.45870971679688 -4.104507446289063 21.41639709472656 C -4.992965698242188 31.12364196777344 -4.793045043945313 44.00289154052734 -4.516326904296875 61.82849884033203 C -4.353759765625 72.30064392089844 -4.169509887695313 84.17003631591797 -4.169509887695313 97.92481994628906 C -4.169509887695313 114.6368255615234 -4.461578369140625 126.6363525390625 -4.674819946289063 135.3979949951172 C -4.813003540039063 141.0761413574219 -4.912857055664063 145.1786804199219 -4.865142822265625 148.0052795410156 C -4.841110229492188 149.4275665283203 -4.779541015625 150.4847106933594 -4.676925659179688 151.2371368408203 C -4.6148681640625 151.6922760009766 -4.544677734375 151.9781646728516 -4.487930297851563 152.153076171875 C -4.305023193359375 152.0223083496094 -4.005401611328125 151.7687835693359 -3.539047241210938 151.2778625488281 C -2.878082275390625 150.5821075439453 -2.04510498046875 149.5862121582031 -1.080642700195313 148.4330291748047 C 7.286239624023438 138.4294281005859 26.87992095947266 115.0027160644531 72.61942291259766 115.0027160644531 C 94.96754455566406 115.0027160644531 107.8030776977539 118.0050811767578 114.5605239868164 120.4603118896484 C 112.0983276367188 116.5598526000977 109.1803436279297 110.4545593261719 106.7278137207031 101.1627807617188 C 103.2926025390625 88.14793395996094 101.55078125 71.88592529296875 101.55078125 52.82843017578125 C 101.55078125 16.49085998535156 108.0617294311523 -1.94537353515625 112.8468017578125 -10.58305358886719 M 122.6441192626953 -19.26693725585938 C 124.4450912475586 -19.26693725585938 123.1323089599609 -15.83106994628906 115.1857757568359 -12.53614807128906 C 118.4148712158203 -17.47286987304688 121.3429641723633 -19.26693725585938 122.6441192626953 -19.26693725585938 Z M 115.1857757568359 -12.53614807128906 C 109.3585510253906 -3.6273193359375 102.55078125 15.51683044433594 102.55078125 52.82843017578125 C 102.55078125 95.57270812988281 111.3435821533203 115.0152893066406 117.3237991333008 122.6680908203125 C 110.6877746582031 119.6014022827148 97.17240905761719 116.0027160644531 72.61942291259766 116.0027160644531 C 15.37568664550781 116.0027160644531 -0.6687774658203125 153.2842712402344 -4.67156982421875 153.2842712402344 C -7.054534912109375 153.2842712402344 -5.169509887695313 140.0762023925781 -5.169509887695313 97.92481994628906 C -5.169509887695313 -0.3386688232421875 -14.64678955078125 -6.730392456054688 43.00937652587891 -6.730392456054688 C 51.62968444824219 -6.730392456054688 61.74700927734375 -6.587600708007813 73.62496185302734 -6.587600708007813 C 94.9283447265625 -6.587600708007813 107.8690719604492 -9.502365112304688 115.1857757568359 -12.53614807128906 Z M 117.3237991333008 122.6680908203125 C 122.2514801025391 124.9452972412109 123.3854675292969 126.9287185668945 122.4318695068359 126.9287185668945 C 121.7006988525391 126.9287185668945 119.7428970336914 125.7637634277344 117.3237991333008 122.6680908203125 Z" stroke="none" fill="#fff"/></g></g><g transform="translate(-1540.862 43.655) rotate(47)" fill="rgba(239,50,11,0.51)"><path d="M 33.42950820922852 31.59306526184082 L 0.8066125512123108 30.37687110900879 L 15.99607563018799 1.046115040779114 L 33.42950820922852 31.59306526184082 Z" stroke="none"/><path d="M 16.01739883422852 2.092203140258789 L 1.61322021484375 29.90657806396484 L 32.54953384399414 31.05989456176758 L 16.01739883422852 2.092203140258789 M 15.9747486114502 -3.814697265625e-06 L 34.30947875976563 32.12620544433594 L 0 30.84713363647461 L 15.9747486114502 -3.814697265625e-06 Z" stroke="none" fill="#707070"/></g><g transform="translate(-1516.509 43.438) rotate(139)" fill="rgba(41,70,128,0.87)"><path d="M 0.8730753660202026 31.83576583862305 L 18.17060470581055 1.058852910995483 L 33.24061965942383 30.62848472595215 L 0.8730753660202026 31.83576583862305 Z" stroke="none"/><path d="M 18.14905548095703 2.117706298828125 L 1.746147155761719 31.3028450012207 L 32.43965530395508 30.15800666809082 L 18.14905548095703 2.117706298828125 M 18.19215393066406 -3.814697265625e-06 L 34.04158401489258 31.09895515441895 L 3.814697265625e-06 32.36867523193359 L 18.19215393066406 -3.814697265625e-06 Z" stroke="none" fill="#707070"/></g><g transform="translate(-1520.237 67.021) rotate(-133)" fill="rgba(237,251,38,0.9)"><path d="M 33.42950820922852 31.59306526184082 L 0.8066125512123108 30.37687110900879 L 15.99607563018799 1.046115040779114 L 33.42950820922852 31.59306526184082 Z" stroke="none"/><path d="M 16.01739883422852 2.092203140258789 L 1.61322021484375 29.90657806396484 L 32.54953384399414 31.05989456176758 L 16.01739883422852 2.092203140258789 M 15.9747486114502 -3.814697265625e-06 L 34.30947875976563 32.12620544433594 L 0 30.84713363647461 L 15.9747486114502 -3.814697265625e-06 Z" stroke="none" fill="#707070"/></g><g transform="translate(-1544.439 67.958) rotate(-43)" fill="#ef320b"><path d="M 0.8755385875701904 31.75807762145996 L 18.22370338439941 1.054606318473816 L 33.32792663574219 30.54189872741699 L 0.8755385875701904 31.75807762145996 Z" stroke="none"/><path d="M 18.20212745666504 2.109209060668945 L 1.751087188720703 31.22491264343262 L 32.5252685546875 30.07162857055664 L 18.20212745666504 2.109209060668945 M 18.24528503417969 0 L 34.13059616088867 31.01217079162598 L -3.814697265625e-06 32.29124069213867 L 18.24528503417969 0 Z" stroke="none" fill="#707070"/></g><text transform="translate(-1544.916 37)" fill="#fff" font-size="8" font-family="FranklinGothic-Medium, Franklin Gothic" font-weight="500"><tspan x="0.654" y="7">2</tspan></text><text transform="translate(-1532.916 40)" fill="#fff" font-size="8" font-family="FranklinGothic-Medium, Franklin Gothic" font-weight="500"><tspan x="0.654" y="7">3</tspan></text><text transform="translate(-1519.916 37)" fill="#fff" font-size="8" font-family="FranklinGothic-Medium, Franklin Gothic" font-weight="500"><tspan x="0.654" y="7">4</tspan></text><text transform="translate(-1545.916 52)" fill="#fff" font-size="8" font-family="FranklinGothic-Medium, Franklin Gothic" font-weight="500"><tspan x="0.734" y="7">X</tspan></text><text transform="translate(-1541.916 61)" fill="#fff" font-size="8" font-family="FranklinGothic-Medium, Franklin Gothic" font-weight="500"><tspan x="0.604" y="7">P</tspan></text><text transform="translate(-1472.916 109)" fill="#fff" font-size="8" font-family="FranklinGothic-Medium, Franklin Gothic" font-weight="500"><tspan x="0.854" y="7">E</tspan></text><text transform="translate(-1524.916 61)" fill="#fff" font-size="8" font-family="FranklinGothic-Medium, Franklin Gothic" font-weight="500"><tspan x="0.43" y="7">R</tspan></text><text transform="translate(-1532.916 68)" fill="#fff" font-size="8" font-family="FranklinGothic-Medium, Franklin Gothic" font-weight="500"><tspan x="0.854" y="7">E</tspan></text><text transform="translate(-1519.916 52)" fill="#fff" font-size="8" font-family="FranklinGothic-Medium, Franklin Gothic" font-weight="500"><tspan x="1.066" y="7">T</tspan></text></g></svg>