<svg xmlns="http://www.w3.org/2000/svg" width="32" height="32" viewBox="0 0 32 32">
  <path id="twitter" d="M31.937,6.057a11.453,11.453,0,0,1-3.767,1.271,8.059,8.059,0,0,0,2.884-4.467A12.123,12.123,0,0,1,26.886,4.8,6.045,6.045,0,0,0,22.1,2.246c-3.623,0-6.56,3.614-6.56,8.066a10.086,10.086,0,0,0,.169,1.844C10.254,11.839,5.421,8.617,2.187,3.747A9.342,9.342,0,0,0,1.3,7.807a8.691,8.691,0,0,0,2.917,6.719,5.642,5.642,0,0,1-2.971-1.011v.1c0,3.912,2.257,7.175,5.261,7.918a5.5,5.5,0,0,1-1.728.281,5.42,5.42,0,0,1-1.221-.141c.841,3.2,3.26,5.54,6.138,5.605A11.7,11.7,0,0,1,1.56,30.732,11.35,11.35,0,0,1,0,30.622a16.229,16.229,0,0,0,10.076,3.624c12.071,0,18.665-12.3,18.665-22.943,0-.343,0-.689-.02-1.033A15.323,15.323,0,0,0,32,6.09l-.063-.033Z" transform="translate(0 -2.246)" fill="#3b7aed"/>
</svg>
